<svg xmlns="http://www.w3.org/2000/svg" width="178" height="178" fill="none" viewBox="0 0 178 178"><path fill="#fff" d="M0 0h178v178H0z"/><path fill="#000" fill-rule="evenodd" d="M178 178H0V0h178z" clip-rule="evenodd"/><path fill="#fff" d="M58.268 51.112a2.51 2.51 0 0 1 2.379-1.717h75.569c.9 0 1.537.882 1.252 1.738l-7.649 22.949a2.51 2.51 0 0 1-2.38 1.716H105.18c-1.08 0-2.038.692-2.379 1.716l-16.46 49.375a2.51 2.51 0 0 1-2.378 1.716h-23.82a1.32 1.32 0 0 1-1.252-1.737l16.443-49.33a1.32 1.32 0 0 0-1.251-1.738H51.87a1.32 1.32 0 0 1-1.252-1.737z"/></svg>